<mxfile host="app.diagrams.net" modified="2020-12-14T13:42:10.221Z" agent="5.0 (Windows)" etag="Tvoj_TnIR_VoY6UsDGdL" version="14.0.0" type="github">
  <diagram id="j9NaWDG-PyvncAnLxbCq" name="Page-1">
    <mxGraphModel dx="1038" dy="547" grid="1" gridSize="10" guides="1" tooltips="1" connect="1" arrows="1" fold="1" page="1" pageScale="1" pageWidth="1169" pageHeight="827" math="0" shadow="0">
      <root>
        <mxCell id="0" />
        <mxCell id="1" parent="0" />
        <mxCell id="UBPsL0NpM_ScLO13zL5S-83" value="CONTRACT MANAGEMENT" style="swimlane;" vertex="1" parent="1">
          <mxGeometry x="10" y="10" width="1150" height="810" as="geometry" />
        </mxCell>
        <mxCell id="UBPsL0NpM_ScLO13zL5S-84" value="Start" style="rounded=1;whiteSpace=wrap;html=1;" vertex="1" parent="UBPsL0NpM_ScLO13zL5S-83">
          <mxGeometry x="185" y="40" width="90" height="50" as="geometry" />
        </mxCell>
        <mxCell id="UBPsL0NpM_ScLO13zL5S-85" value="HSCM prepares draft contract document and forwards to CS for review" style="rounded=0;whiteSpace=wrap;html=1;" vertex="1" parent="UBPsL0NpM_ScLO13zL5S-83">
          <mxGeometry x="150" y="160" width="160" height="50" as="geometry" />
        </mxCell>
        <mxCell id="UBPsL0NpM_ScLO13zL5S-86" value="" style="edgeStyle=orthogonalEdgeStyle;rounded=0;orthogonalLoop=1;jettySize=auto;html=1;" edge="1" parent="UBPsL0NpM_ScLO13zL5S-83" source="UBPsL0NpM_ScLO13zL5S-84" target="UBPsL0NpM_ScLO13zL5S-85">
          <mxGeometry relative="1" as="geometry">
            <mxPoint x="230" y="165" as="targetPoint" />
          </mxGeometry>
        </mxCell>
        <mxCell id="UBPsL0NpM_ScLO13zL5S-87" value="HoD Procurement forwards draft contract to CEO for review" style="whiteSpace=wrap;html=1;rounded=0;" vertex="1" parent="UBPsL0NpM_ScLO13zL5S-83">
          <mxGeometry x="170" y="430" width="120" height="70" as="geometry" />
        </mxCell>
        <mxCell id="UBPsL0NpM_ScLO13zL5S-89" value="HoD procurement incorporates CEOs recommendations into final contract and forwards to the successful bidder for review and concurrence" style="whiteSpace=wrap;html=1;rounded=0;" vertex="1" parent="UBPsL0NpM_ScLO13zL5S-83">
          <mxGeometry x="130" y="571" width="200" height="80" as="geometry" />
        </mxCell>
        <mxCell id="UBPsL0NpM_ScLO13zL5S-90" value="" style="edgeStyle=orthogonalEdgeStyle;rounded=0;orthogonalLoop=1;jettySize=auto;html=1;" edge="1" parent="UBPsL0NpM_ScLO13zL5S-83" source="UBPsL0NpM_ScLO13zL5S-87" target="UBPsL0NpM_ScLO13zL5S-89">
          <mxGeometry relative="1" as="geometry" />
        </mxCell>
        <mxCell id="UBPsL0NpM_ScLO13zL5S-91" value="Contract is signed by the bidder and CEO in presence of CS" style="whiteSpace=wrap;html=1;rounded=0;" vertex="1" parent="UBPsL0NpM_ScLO13zL5S-83">
          <mxGeometry x="170" y="720" width="120" height="69" as="geometry" />
        </mxCell>
        <mxCell id="UBPsL0NpM_ScLO13zL5S-92" value="" style="edgeStyle=orthogonalEdgeStyle;rounded=0;orthogonalLoop=1;jettySize=auto;html=1;" edge="1" parent="UBPsL0NpM_ScLO13zL5S-83" source="UBPsL0NpM_ScLO13zL5S-89" target="UBPsL0NpM_ScLO13zL5S-91">
          <mxGeometry relative="1" as="geometry" />
        </mxCell>
        <mxCell id="UBPsL0NpM_ScLO13zL5S-93" value="CEO appoints Contract implementation Committee to monitor the contract implementation" style="whiteSpace=wrap;html=1;rounded=0;" vertex="1" parent="UBPsL0NpM_ScLO13zL5S-83">
          <mxGeometry x="435" y="545.5" width="140" height="80" as="geometry" />
        </mxCell>
        <mxCell id="UBPsL0NpM_ScLO13zL5S-94" value="" style="edgeStyle=orthogonalEdgeStyle;rounded=0;orthogonalLoop=1;jettySize=auto;html=1;" edge="1" parent="UBPsL0NpM_ScLO13zL5S-83" source="UBPsL0NpM_ScLO13zL5S-91" target="UBPsL0NpM_ScLO13zL5S-93">
          <mxGeometry relative="1" as="geometry" />
        </mxCell>
        <mxCell id="UBPsL0NpM_ScLO13zL5S-95" value="&lt;div&gt;CEO&lt;/div&gt;&lt;div&gt;Approves&lt;/div&gt;" style="rhombus;whiteSpace=wrap;html=1;rounded=0;" vertex="1" parent="UBPsL0NpM_ScLO13zL5S-83">
          <mxGeometry x="731" y="530" width="100" height="80" as="geometry" />
        </mxCell>
        <mxCell id="UBPsL0NpM_ScLO13zL5S-96" value="CEO forwards to Finance for payment" style="whiteSpace=wrap;html=1;rounded=0;" vertex="1" parent="UBPsL0NpM_ScLO13zL5S-83">
          <mxGeometry x="721" y="670" width="120" height="60" as="geometry" />
        </mxCell>
        <mxCell id="UBPsL0NpM_ScLO13zL5S-97" value="" style="edgeStyle=orthogonalEdgeStyle;rounded=0;orthogonalLoop=1;jettySize=auto;html=1;" edge="1" parent="UBPsL0NpM_ScLO13zL5S-83" source="UBPsL0NpM_ScLO13zL5S-95" target="UBPsL0NpM_ScLO13zL5S-96">
          <mxGeometry relative="1" as="geometry" />
        </mxCell>
        <mxCell id="UBPsL0NpM_ScLO13zL5S-98" value="yes" style="text;html=1;strokeColor=none;fillColor=none;align=center;verticalAlign=middle;whiteSpace=wrap;rounded=0;" vertex="1" parent="UBPsL0NpM_ScLO13zL5S-83">
          <mxGeometry x="777" y="625.5" width="40" height="20" as="geometry" />
        </mxCell>
        <mxCell id="UBPsL0NpM_ScLO13zL5S-99" value="no" style="text;html=1;strokeColor=none;fillColor=none;align=center;verticalAlign=middle;whiteSpace=wrap;rounded=0;" vertex="1" parent="UBPsL0NpM_ScLO13zL5S-83">
          <mxGeometry x="860" y="551" width="40" height="20" as="geometry" />
        </mxCell>
        <mxCell id="UBPsL0NpM_ScLO13zL5S-100" value="CEO recommendations " style="shape=note;whiteSpace=wrap;html=1;backgroundOutline=1;darkOpacity=0.05;" vertex="1" parent="UBPsL0NpM_ScLO13zL5S-83">
          <mxGeometry x="920" y="520" width="110" height="100" as="geometry" />
        </mxCell>
        <mxCell id="UBPsL0NpM_ScLO13zL5S-101" value="" style="edgeStyle=orthogonalEdgeStyle;rounded=0;orthogonalLoop=1;jettySize=auto;html=1;entryX=0;entryY=0.5;entryDx=0;entryDy=0;entryPerimeter=0;" edge="1" parent="UBPsL0NpM_ScLO13zL5S-83" source="UBPsL0NpM_ScLO13zL5S-95" target="UBPsL0NpM_ScLO13zL5S-100">
          <mxGeometry relative="1" as="geometry">
            <mxPoint x="911" y="570" as="targetPoint" />
          </mxGeometry>
        </mxCell>
        <mxCell id="UBPsL0NpM_ScLO13zL5S-102" value="End" style="rounded=1;whiteSpace=wrap;html=1;" vertex="1" parent="UBPsL0NpM_ScLO13zL5S-83">
          <mxGeometry x="970" y="675" width="90" height="50" as="geometry" />
        </mxCell>
        <mxCell id="UBPsL0NpM_ScLO13zL5S-103" value="" style="edgeStyle=orthogonalEdgeStyle;rounded=0;orthogonalLoop=1;jettySize=auto;html=1;entryX=0;entryY=0.5;entryDx=0;entryDy=0;" edge="1" parent="UBPsL0NpM_ScLO13zL5S-83" source="UBPsL0NpM_ScLO13zL5S-96" target="UBPsL0NpM_ScLO13zL5S-102">
          <mxGeometry relative="1" as="geometry">
            <mxPoint x="921" y="700" as="targetPoint" />
          </mxGeometry>
        </mxCell>
        <mxCell id="UBPsL0NpM_ScLO13zL5S-104" value="" style="edgeStyle=orthogonalEdgeStyle;rounded=0;orthogonalLoop=1;jettySize=auto;html=1;" edge="1" parent="1" source="UBPsL0NpM_ScLO13zL5S-105" target="UBPsL0NpM_ScLO13zL5S-108">
          <mxGeometry relative="1" as="geometry" />
        </mxCell>
        <mxCell id="UBPsL0NpM_ScLO13zL5S-105" value="Implementation committee holds meetings based on the agreed timelines and compiles contract implementation reports for the accounting officer (CEO)" style="whiteSpace=wrap;html=1;rounded=0;" vertex="1" parent="1">
          <mxGeometry x="410" y="395.5" width="210" height="84.5" as="geometry" />
        </mxCell>
        <mxCell id="UBPsL0NpM_ScLO13zL5S-106" value="" style="edgeStyle=orthogonalEdgeStyle;rounded=0;orthogonalLoop=1;jettySize=auto;html=1;" edge="1" parent="1" source="UBPsL0NpM_ScLO13zL5S-93" target="UBPsL0NpM_ScLO13zL5S-105">
          <mxGeometry relative="1" as="geometry" />
        </mxCell>
        <mxCell id="UBPsL0NpM_ScLO13zL5S-107" value="" style="edgeStyle=orthogonalEdgeStyle;rounded=0;orthogonalLoop=1;jettySize=auto;html=1;" edge="1" parent="1" source="UBPsL0NpM_ScLO13zL5S-108" target="UBPsL0NpM_ScLO13zL5S-110">
          <mxGeometry relative="1" as="geometry" />
        </mxCell>
        <mxCell id="UBPsL0NpM_ScLO13zL5S-108" value="At the end of the implementation the project manager sends a completion certificate to the CEO" style="whiteSpace=wrap;html=1;rounded=0;" vertex="1" parent="1">
          <mxGeometry x="430" y="240" width="170" height="80" as="geometry" />
        </mxCell>
        <mxCell id="UBPsL0NpM_ScLO13zL5S-109" value="" style="edgeStyle=orthogonalEdgeStyle;rounded=0;orthogonalLoop=1;jettySize=auto;html=1;" edge="1" parent="1" source="UBPsL0NpM_ScLO13zL5S-110" target="UBPsL0NpM_ScLO13zL5S-112">
          <mxGeometry relative="1" as="geometry" />
        </mxCell>
        <mxCell id="UBPsL0NpM_ScLO13zL5S-110" value="The CEO directs the implementation committee to Inspect the status" style="whiteSpace=wrap;html=1;rounded=0;" vertex="1" parent="1">
          <mxGeometry x="721" y="240" width="140" height="80" as="geometry" />
        </mxCell>
        <mxCell id="UBPsL0NpM_ScLO13zL5S-111" value="" style="edgeStyle=orthogonalEdgeStyle;rounded=0;orthogonalLoop=1;jettySize=auto;html=1;" edge="1" parent="1" source="UBPsL0NpM_ScLO13zL5S-112" target="UBPsL0NpM_ScLO13zL5S-95">
          <mxGeometry relative="1" as="geometry" />
        </mxCell>
        <mxCell id="UBPsL0NpM_ScLO13zL5S-112" value="Implementation committee prepares contract completion report and forwards to CEO for approval" style="whiteSpace=wrap;html=1;rounded=0;" vertex="1" parent="1">
          <mxGeometry x="711" y="400" width="160" height="80" as="geometry" />
        </mxCell>
        <mxCell id="UBPsL0NpM_ScLO13zL5S-113" value="" style="edgeStyle=orthogonalEdgeStyle;rounded=0;orthogonalLoop=1;jettySize=auto;html=1;entryX=0.5;entryY=0;entryDx=0;entryDy=0;" edge="1" parent="1" source="UBPsL0NpM_ScLO13zL5S-100" target="UBPsL0NpM_ScLO13zL5S-108">
          <mxGeometry relative="1" as="geometry">
            <mxPoint x="970" y="430" as="targetPoint" />
            <Array as="points">
              <mxPoint x="960" y="200" />
              <mxPoint x="515" y="200" />
            </Array>
          </mxGeometry>
        </mxCell>
        <mxCell id="UBPsL0NpM_ScLO13zL5S-117" value="" style="edgeStyle=orthogonalEdgeStyle;rounded=0;orthogonalLoop=1;jettySize=auto;html=1;entryX=0.5;entryY=0;entryDx=0;entryDy=0;" edge="1" parent="1" source="UBPsL0NpM_ScLO13zL5S-114" target="UBPsL0NpM_ScLO13zL5S-87">
          <mxGeometry relative="1" as="geometry">
            <mxPoint x="240" y="435" as="targetPoint" />
          </mxGeometry>
        </mxCell>
        <mxCell id="UBPsL0NpM_ScLO13zL5S-114" value="CS review the draft contract and returns into the document to HSCM" style="whiteSpace=wrap;html=1;rounded=0;" vertex="1" parent="1">
          <mxGeometry x="180" y="295" width="120" height="60" as="geometry" />
        </mxCell>
        <mxCell id="UBPsL0NpM_ScLO13zL5S-115" value="" style="edgeStyle=orthogonalEdgeStyle;rounded=0;orthogonalLoop=1;jettySize=auto;html=1;" edge="1" parent="1" source="UBPsL0NpM_ScLO13zL5S-85" target="UBPsL0NpM_ScLO13zL5S-114">
          <mxGeometry relative="1" as="geometry" />
        </mxCell>
      </root>
    </mxGraphModel>
  </diagram>
</mxfile>
